<?xml version="1.0" encoding="utf-8"?>
<!-- Generator: Adobe Illustrator 19.2.1, SVG Export Plug-In . SVG Version: 6.00 Build 0)  -->
<svg version="1.1" id="Layer_1" xmlns="http://www.w3.org/2000/svg" xmlns:xlink="http://www.w3.org/1999/xlink" x="0px" y="0px"
	 viewBox="0 0 100 50.1" style="enable-background:new 0 0 100 50.1;" xml:space="preserve">
<style type="text/css">
	.st0{fill:#28A745;}
</style>
<title>starwars</title>
<path class="st0" d="M100,1.1L100,1.1c0-0.1,0-0.3-0.1-0.4V0.6c0-0.1-0.1-0.2-0.2-0.3l0,0c-0.1-0.1-0.2-0.1-0.2-0.2h-0.1l0,0l0,0
	C99.3,0.1,99.1,0,99,0l0,0c-0.1,0-0.3,0-0.4,0.1h-0.1h-0.1L73.2,13.9c-0.5-2.7-1.7-5.3-3.6-7.3C66,3,59.7,1.3,49.8,1.2l0,0
	C40,1.2,33.7,3,30.1,6.6c-1.9,2-3.1,4.4-3.6,7.1L1.8,0.1H1.7H1.6C1.4,0,1.3,0,1.2,0l0,0C1,0,0.9,0,0.8,0.1l0,0l0,0H0.7
	c-0.1,0-0.3,0.1-0.4,0.2l0,0C0.2,0.4,0.1,0.5,0.1,0.6v0.1C0,0.8,0,1,0,1.1l0,0c0,10.2,2.8,17.7,8.3,22.3c4.3,3.4,9.6,5.2,15.1,5
	c1,0,1.8,0,2.4-0.1c0.2,4.7,2.7,9.2,7.4,13.1l0,0c1.2,1,2.6,2,3.9,2.9c3.8,2.4,7.8,4.3,12,5.7c0.1,0,0.2,0.1,0.3,0.1h0.2
	c0.2,0,0.4,0,0.5-0.1c4.2-1.4,8.2-3.3,12-5.7c7.2-4.6,11.2-10.2,11.4-16c0.9,0.1,1.9,0.1,2.8,0.1c5.5,0.2,10.8-1.6,15.2-5
	C97.2,18.8,100,11.3,100,1.1L100,1.1z M94.4,16.3l-4.7-0.8c1.3-1.1,2.5-2.3,3.6-3.6c1.5-1.7,2.9-3.6,4.1-5.5
	C97,9.8,96,13.2,94.4,16.3z M95.9,4.1c-3.2,5.4-10.6,15.3-22.1,15.7c0-1.2-0.1-2.3-0.2-3.4L95.9,4.1z M42.5,34.3h14.7l5.4,5.1H37.1
	L42.5,34.3z M45,32l4.9-4.6l4.9,4.6H45z M48.9,13.3L48.9,13.3L48.9,13.3c0.1,0.1,0.2,0.2,0.3,0.2l0.1,0.1c0.1,0,0.2,0.1,0.3,0.1h0.2
	H50c0.1,0,0.2,0,0.3-0.1l0.1-0.1c0.1,0,0.2-0.1,0.2-0.1l0.1-0.1l0,0c4-4.5,7.7-6.4,10.9-5.6c3.4,0.9,5.9,4.5,7.6,8
	c-2.1-2.1-5-3.2-8-3.3c-5.4,0.1-9.5,4.7-11.4,7.1c-1.8-2.5-6-7-11.4-7.1c-3,0-5.9,1.2-8,3.3c1.6-3.4,4.1-7.1,7.6-8
	C41.2,6.9,44.9,8.8,48.9,13.3z M49.8,24.5c-0.3,0-0.6,0.1-0.8,0.3c0.3-0.4,0.6-0.7,0.8-1c0.2,0.3,0.5,0.7,0.8,1
	C50.4,24.6,50.1,24.5,49.8,24.5L49.8,24.5z M29.3,20.4c2.9-3.8,5.9-5.7,9.1-5.7c4,0.1,7.4,3.6,9.2,5.7H29.3z M52.1,20.4
	c1.7-2.2,5.1-5.6,9.2-5.7c3.1-0.1,6.2,1.8,9.1,5.7H52.1z M47.5,22.8c-1.7,2.2-5.1,5.6-9.2,5.8h-0.1c-3.1,0-6-1.9-8.9-5.7L47.5,22.8z
	 M48.8,25L48.8,25L48.8,25z M50.8,25L50.8,25L50.8,25L50.8,25z M52,22.9h18.3c-2.9,3.8-5.9,5.7-8.9,5.7h-0.1
	C57.2,28.4,53.8,25,52,22.9L52,22.9z M31.7,8.3c3.1-3.1,9-4.7,18.1-4.7s15,1.5,18.1,4.7c1.3,1.4,2.3,3.2,2.7,5.1
	c-1.9-3.5-4.7-7-8.5-7.9s-8,0.8-12.3,5.4c-4.3-4.5-8.5-6.3-12.4-5.4s-6.6,4.4-8.4,7.9C29.5,11.4,30.4,9.7,31.7,8.3z M25.8,19.8
	C14.5,19.1,7.2,9.4,4.1,4.1l22,12.2C26,17.4,25.9,18.6,25.8,19.8L25.8,19.8z M9.8,21.6c-4-3.4-6.4-8.5-7.2-15.3
	c1.2,1.9,2.6,3.8,4.1,5.5c5.5,6.4,12.1,10,19.1,10.3c0,0.9,0,1.8,0,2.8c0,0.3,0,0.7,0,1C23.2,26.2,15.7,26.4,9.8,21.6z M28.2,27.7
	c0-0.8,0-1.6,0-2.4c3.1,3.7,6.5,5.6,10,5.6h0.2c2.6-0.1,5.1-1.1,7.1-2.7L34.1,39C30.8,36,28.2,32.2,28.2,27.7z M49.8,47.7
	c-4.3-1.5-8.3-3.4-12.1-5.9h24.2C58.2,44.3,54.1,46.2,49.8,47.7z M65.5,39l-7.1-6.7l0,0L54,28.2c2,1.6,4.5,2.6,7.1,2.7h0.2
	c3.6,0,6.9-1.9,10-5.6c0,0.8,0,1.6,0,2.4C71.4,32.2,68.9,36,65.5,39L65.5,39z M90.2,21.6c-6,5.1-14.1,4.6-16.3,4.4c0-0.3,0-0.7,0-1
	c0-0.9,0-1.9,0-2.8c4.8-0.2,9.5-1.9,13.4-4.7l5.9,1C92.2,19.6,91.2,20.6,90.2,21.6L90.2,21.6z"/>
</svg>
